<?xml version="1.0" encoding="UTF-8"?>
<svg id="Calque_1" data-name="Calque 1" xmlns="http://www.w3.org/2000/svg" viewBox="0 0 966.73 506.29">
  <defs>
    <style>
      .cls-1 {
        fill: #2e3192;
      }

      .cls-2 {
        fill: #2e3191;
      }

      .cls-3 {
        fill: #231f20;
      }

      .cls-4 {
        font-family: ElMessiri-Bold, 'El Messiri';
        font-size: 93px;
        font-weight: 700;
      }

      .cls-5 {
        fill: #ed1c24;
      }
    </style>
  </defs>
  <g>
    <path class="cls-1" d="M482.58,47.54c-7.09,5.33-13.84,11.25-20.19,17.72l20.58,16.88,20.08-16.92c-6.37-6.39-13.21-12.3-20.47-17.68ZM480.89,305.13c-5.48,5.16-11.34,9.91-17.54,14.23,6.26,6.24,13.04,12.11,20.36,17.53,5.51-4.16,10.78-8.62,15.77-13.36-6.74-5.76-12.94-11.92-18.6-18.4ZM458.76,322.45c-24.09,15.55-52.79,24.57-83.6,24.57-85.25,0-154.36-69.12-154.36-154.38S289.91,38.27,375.16,38.27c30.43,0,58.8,8.8,82.7,24l20.28-17.92c-29.21-20.32-64.71-32.23-102.98-32.23-99.7,0-180.52,80.82-180.52,180.52s80.82,180.53,180.52,180.53c38.75,0,74.67-12.21,104.08-33.01-7.19-5.61-14.03-11.52-20.48-17.71ZM506.46,68.74c-6.95,5.2-13.63,10.85-19.96,16.95,26.66,27.74,43.05,65.43,43.05,106.95s-17.34,81.35-45.36,109.29l18.56,18.42c32.72-32.67,52.95-77.83,52.95-127.72s-18.71-91.57-49.23-123.9Z"/>
    <path class="cls-5" d="M644.01,364.44c-50.88,15.54-107.98,8.47-154.87-23.69-1.73-1.18-3.46-2.41-5.16-3.67-.09-.06-.18-.13-.26-.19-7.32-5.42-14.11-11.29-20.36-17.53l-3.94-4.07c-58.54-62.3-66.1-159.41-13.54-230.65,4.21-5.71,8.7-11.1,13.44-16.17,7.19,5.2,14.05,10.85,20.52,16.89-4.2,4.45-8.18,9.2-11.89,14.24-44.43,60.23-38.54,142.85,9.26,201.17,1.21,1.46,2.43,2.92,3.68,4.35,5.66,6.48,11.86,12.64,18.6,18.4l5.02,4.14c1.76,1.41,3.56,2.78,5.39,4.13,40.64,29.99,89.39,40.37,134.11,32.64Z"/>
    <path class="cls-5" d="M771.23,179.07c-8.02-41.18-31.62-80.29-69.05-107.91-60.11-44.34-138-45.83-194.29-9.21-6.54-6.31-13.4-12.28-20.59-17.85,61.79-43.47,146.88-44.88,211.02,2.44,44.25,32.65,69.29,81.67,72.91,132.53Z"/>
    <g>
      <polygon class="cls-3" points="710.11 316.36 688.1 308.56 671.94 311.39 692.97 324 710.11 316.36"/>
      <path class="cls-3" d="M770.29,309.37c-12.34-5.25-26.32-5-38.47.68l-17.02,7.97-17.87,8.36-23.59,11.04-15.11-9.91-9.47,3.98,12.16,22.99-13.2,8.81,20.59-4.17,42.32-17.58-5.75,37.29,12.26-7.84,16.47-40.01,36.67-21.61h0Z"/>
    </g>
    <path class="cls-3" d="M503.05,65.22l-17.86,15.05-.95.81-1.26,1.06-.6-.49-.97-.8-19.01-15.59c6.35-6.47,13.1-12.39,20.19-17.72,7.26,5.38,14.1,11.29,20.47,17.68Z"/>
    <path class="cls-5" d="M504.51,327.67c-4.95,4.56-10.07,8.92-15.37,13.08-1.73-1.18-3.46-2.41-5.16-3.67-.09-.06-.18-.13-.26-.19-7.32-5.42-14.11-11.29-20.36-17.53l-3.94-4.07c6.18-4.53,12.12-9.38,17.79-14.51,1.21,1.46,2.43,2.92,3.68,4.35,5.66,6.48,11.86,12.64,18.6,18.4l5.02,4.14Z"/>
    <polygon class="cls-3" points="456.45 228.1 482.72 88.92 508.99 228.1 482.72 279.1 456.45 228.1"/>
  </g>
  <text class="cls-4" transform="translate(9.25 480.43)"><tspan class="cls-2" x="0" y="0">OCEAN </tspan><tspan class="cls-5" x="340.47" y="0">CONNECTING</tspan></text>
</svg>