<?xml version="1.0" encoding="UTF-8"?>
<svg id="Layer_1" data-name="Layer 1" xmlns="http://www.w3.org/2000/svg" xmlns:xlink="http://www.w3.org/1999/xlink" viewBox="0 0 413 35">
  <defs>
    <style>
      .cls-1 {
        fill: #2e3192;
      }

      .cls-2 {
        fill: none;
      }

      .cls-3 {
        fill: #2e3191;
      }

      .cls-4 {
        clip-path: url(#clippath-1);
      }

      .cls-5 {
        fill: #231f20;
      }

      .cls-6 {
        clip-path: url(#clippath-3);
      }

      .cls-7 {
        clip-path: url(#clippath-2);
      }

      .cls-8 {
        fill: #ed1c24;
      }

      .cls-9 {
        clip-path: url(#clippath);
      }
    </style>
    <clipPath id="clippath">
      <rect class="cls-2" y=".24" width="55" height="35.06"/>
    </clipPath>
    <clipPath id="clippath-1">
      <rect class="cls-2" y=".24" width="55" height="35.06"/>
    </clipPath>
    <clipPath id="clippath-2">
      <rect class="cls-2" x="67" y="5.76" width="346" height="24.03"/>
    </clipPath>
    <clipPath id="clippath-3">
      <rect class="cls-2" x="67" y="5.76" width="346" height="24.03"/>
    </clipPath>
  </defs>
  <g id="Artwork_2" data-name="Artwork 2">
    <g class="cls-9">
      <g class="cls-4">
        <path class="cls-1" d="M27.47,3.7c-.68.51-1.32,1.07-1.93,1.69l1.96,1.61,1.92-1.61c-.61-.61-1.26-1.17-1.95-1.69M27.31,28.27c-.52.49-1.08.95-1.67,1.36.6.6,1.24,1.16,1.94,1.67.53-.4,1.03-.82,1.5-1.27-.64-.55-1.23-1.14-1.77-1.75M25.19,29.93c-2.3,1.48-5.04,2.34-7.97,2.34-8.13,0-14.72-6.59-14.72-14.73S9.09,2.82,17.22,2.82c2.9,0,5.61.84,7.89,2.29l1.93-1.71c-2.79-1.94-6.17-3.07-9.82-3.07C7.71.32,0,8.03,0,17.54s7.71,17.22,17.22,17.22c3.7,0,7.12-1.16,9.93-3.15-.69-.54-1.34-1.1-1.95-1.69M29.74,5.72c-.66.5-1.3,1.04-1.9,1.62,2.54,2.65,4.11,6.24,4.11,10.2s-1.65,7.76-4.33,10.43l1.77,1.76c3.12-3.12,5.05-7.42,5.05-12.18s-1.78-8.73-4.7-11.82"/>
        <path class="cls-8" d="M42.86,33.93c-4.85,1.48-10.3.81-14.77-2.26-.17-.11-.33-.23-.49-.35,0,0-.02-.01-.02-.02-.7-.52-1.35-1.08-1.94-1.67l-.38-.39c-5.58-5.94-6.3-15.21-1.29-22,.4-.55.83-1.06,1.28-1.54.69.5,1.34,1.03,1.96,1.61-.4.42-.78.88-1.13,1.36-4.24,5.75-3.68,13.63.88,19.19.12.14.23.28.35.41.54.62,1.13,1.21,1.77,1.75l.48.39c.17.13.34.27.51.39,3.88,2.86,8.53,3.85,12.79,3.11"/>
        <path class="cls-8" d="M55,16.25c-.77-3.93-3.02-7.66-6.59-10.29-5.73-4.23-13.16-4.37-18.53-.88-.62-.6-1.28-1.17-1.96-1.7,5.89-4.15,14.01-4.28,20.13.23,4.22,3.11,6.61,7.79,6.96,12.64"/>
        <polygon class="cls-5" points="49.17 29.34 47.07 28.6 45.53 28.87 47.53 30.07 49.17 29.34"/>
        <path class="cls-5" d="M54.91,28.68c-1.18-.5-2.51-.48-3.67.07l-1.62.76-1.7.8-2.25,1.05-1.44-.95-.9.38,1.16,2.19-1.26.84,1.96-.4,4.04-1.68-.55,3.56,1.17-.75,1.57-3.82,3.5-2.06Z"/>
        <path class="cls-5" d="M29.42,5.39l-1.7,1.44-.09.08-.12.1-.06-.05-.09-.08-1.81-1.49c.61-.62,1.25-1.18,1.93-1.69.69.51,1.34,1.08,1.95,1.69"/>
        <path class="cls-8" d="M29.56,30.42c-.47.43-.96.85-1.47,1.25-.17-.11-.33-.23-.49-.35,0,0-.02-.01-.02-.02-.7-.52-1.35-1.08-1.94-1.67l-.38-.39c.59-.43,1.16-.9,1.7-1.38.12.14.23.28.35.41.54.62,1.13,1.21,1.77,1.75l.48.39Z"/>
        <polygon class="cls-5" points="24.97 20.93 27.48 7.65 29.99 20.93 27.48 25.79 24.97 20.93"/>
      </g>
    </g>
  </g>
  <g id="Artwork_3" data-name="Artwork 3">
    <g class="cls-7">
      <g class="cls-6">
        <path class="cls-3" d="M72.41,28.21c-1.73-1.05-3.06-2.49-4-4.33-.94-1.83-1.41-3.87-1.41-6.11s.47-4.28,1.41-6.11c.94-1.83,2.27-3.27,4-4.33,1.73-1.05,3.7-1.58,5.92-1.58s4.19.53,5.91,1.58c1.72,1.05,3.04,2.5,3.98,4.33.94,1.83,1.41,3.87,1.41,6.11s-.47,4.28-1.41,6.11c-.94,1.83-2.27,3.27-3.98,4.33-1.72,1.05-3.69,1.58-5.91,1.58s-4.19-.53-5.92-1.58M83.17,25.52c1.14-1.82,1.72-4.4,1.72-7.74s-.57-5.92-1.72-7.74c-1.14-1.82-2.76-2.73-4.84-2.73s-3.69.91-4.82,2.73-1.7,4.4-1.7,7.74.57,5.92,1.7,7.74c1.13,1.82,2.74,2.73,4.82,2.73s3.7-.91,4.84-2.73"/>
        <path class="cls-3" d="M97.74,28.26c-1.71-1.02-3-2.41-3.9-4.17-.89-1.76-1.34-3.75-1.34-5.97s.49-4.38,1.48-6.27c.98-1.89,2.34-3.38,4.07-4.46,1.73-1.09,3.66-1.63,5.78-1.63,2.01,0,3.7.26,5.05.77,1.35.51,2.38,1.18,3.09,2.01.41.53.66,1.18.76,1.96.09.78.14,1.87.14,3.26h-1.03c-.43-2.11-1.24-3.71-2.4-4.81-1.17-1.1-2.69-1.65-4.57-1.65-2.33,0-4.18.82-5.53,2.47-1.35,1.65-2.03,4.43-2.03,8.34,0,2.91.62,5.32,1.85,7.24,1.24,1.92,3.14,2.88,5.7,2.88,1.6,0,3.07-.42,4.41-1.27,1.34-.85,2.42-2.06,3.24-3.64l1.2.93c-1.1,1.92-2.43,3.32-3.98,4.21-1.56.88-3.52,1.32-5.91,1.32s-4.39-.51-6.09-1.53"/>
        <path class="cls-3" d="M118.15,10.91c0-1.17-.16-2.03-.48-2.59-.32-.56-.96-.84-1.92-.84h-.34v-1.03h15.14c1.95,0,2.92.92,2.92,2.75v2.92h-1.03c0-1.42-.36-2.46-1.08-3.12-.72-.66-1.79-1-3.21-1h-5.53v8.58h8.93v1.54h-8.93v9.44h5.87c1.3,0,2.39-.29,3.26-.88.87-.58,1.59-1.6,2.16-3.04l.93.34-1,2.71c-.3.82-.65,1.43-1.06,1.82-.41.39-1.05.58-1.92.58h-12.7V10.91Z"/>
        <path class="cls-3" d="M153.48,28.33c-1.17-.61-2.12-1.79-2.85-3.55l-.79-1.92h-9.13l-2.82,6.25h-1.79l10.13-22.66h1.54l7.69,18.33c.87,2.13,2.06,3.27,3.57,3.43v.86c-.41.11-.96.17-1.65.17-1.44,0-2.75-.3-3.91-.91M149.19,21.31l-3.78-8.96-3.98,8.96h7.76Z"/>
        <path class="cls-3" d="M163.47,12.11v16.99h-1.72V10.56c0-.96-.24-1.72-.7-2.27-.47-.55-1.26-.82-2.39-.82h-.17v-1.03h2.4c1.28,0,2.33.17,3.14.5.81.33,1.49.85,2.04,1.56l11.81,13.73V6.44h1.72v22.76h-1.58l-14.56-17.1Z"/>
        <path class="cls-8" d="M197.93,28.26c-1.71-1.02-3-2.41-3.9-4.17-.89-1.76-1.34-3.75-1.34-5.97s.49-4.38,1.48-6.27c.98-1.89,2.34-3.38,4.07-4.46,1.73-1.09,3.66-1.63,5.78-1.63,2.01,0,3.7.26,5.05.77,1.35.51,2.38,1.18,3.09,2.01.41.53.66,1.18.76,1.96.09.78.14,1.87.14,3.26h-1.03c-.43-2.11-1.24-3.71-2.4-4.81-1.17-1.1-2.69-1.65-4.57-1.65-2.33,0-4.18.82-5.53,2.47-1.35,1.65-2.03,4.43-2.03,8.34,0,2.91.62,5.32,1.85,7.24,1.24,1.92,3.14,2.88,5.7,2.88,1.6,0,3.07-.42,4.41-1.27,1.34-.85,2.42-2.06,3.24-3.64l1.2.93c-1.1,1.92-2.43,3.32-3.98,4.21-1.56.88-3.52,1.32-5.91,1.32s-4.39-.51-6.09-1.53"/>
        <path class="cls-8" d="M221.75,28.21c-1.73-1.05-3.06-2.49-4-4.33-.94-1.83-1.41-3.87-1.41-6.11s.47-4.28,1.41-6.11c.94-1.83,2.27-3.27,4-4.33,1.73-1.05,3.7-1.58,5.92-1.58s4.19.53,5.91,1.58c1.72,1.05,3.04,2.5,3.98,4.33.94,1.83,1.41,3.87,1.41,6.11s-.47,4.28-1.41,6.11c-.94,1.83-2.27,3.27-3.98,4.33-1.72,1.05-3.69,1.58-5.91,1.58s-4.19-.53-5.92-1.58M232.52,25.52c1.14-1.82,1.72-4.4,1.72-7.74s-.57-5.92-1.72-7.74c-1.15-1.82-2.76-2.73-4.84-2.73s-3.69.91-4.82,2.73-1.7,4.4-1.7,7.74.57,5.92,1.7,7.74c1.13,1.82,2.74,2.73,4.82,2.73s3.7-.91,4.84-2.73"/>
        <path class="cls-8" d="M245.46,12.11v16.99h-1.72V10.56c0-.96-.24-1.72-.7-2.27s-1.26-.82-2.39-.82h-.17v-1.03h2.4c1.28,0,2.33.17,3.14.5.81.33,1.49.85,2.04,1.56l11.81,13.73V6.44h1.72v22.76h-1.58l-14.56-17.1Z"/>
        <path class="cls-8" d="M269.56,12.11v16.99h-1.72V10.56c0-.96-.24-1.72-.7-2.27s-1.26-.82-2.39-.82h-.17v-1.03h2.4c1.28,0,2.33.17,3.14.5.81.33,1.49.85,2.04,1.56l11.81,13.73V6.44h1.72v22.76h-1.58l-14.56-17.1Z"/>
        <path class="cls-8" d="M291.84,10.91c0-1.17-.16-2.03-.48-2.59-.32-.56-.96-.84-1.92-.84h-.34v-1.03h15.14c1.95,0,2.92.92,2.92,2.75v2.92h-1.03c0-1.42-.36-2.46-1.08-3.12-.72-.66-1.79-1-3.21-1h-5.53v8.58h8.93v1.54h-8.93v9.44h5.87c1.3,0,2.39-.29,3.26-.88.87-.58,1.59-1.6,2.16-3.04l.93.34-1,2.71c-.3.82-.65,1.43-1.06,1.82-.41.39-1.05.58-1.92.58h-12.7V10.91Z"/>
        <path class="cls-8" d="M316.03,28.26c-1.71-1.02-3-2.41-3.9-4.17-.89-1.76-1.34-3.75-1.34-5.97s.49-4.38,1.48-6.27c.98-1.89,2.34-3.38,4.07-4.46,1.73-1.09,3.66-1.63,5.78-1.63,2.01,0,3.7.26,5.05.77,1.35.51,2.38,1.18,3.09,2.01.41.53.66,1.18.76,1.96.09.78.14,1.87.14,3.26h-1.03c-.44-2.11-1.24-3.71-2.4-4.81-1.17-1.1-2.69-1.65-4.57-1.65-2.33,0-4.18.82-5.53,2.47-1.35,1.65-2.03,4.43-2.03,8.34,0,2.91.62,5.32,1.85,7.24,1.24,1.92,3.14,2.88,5.7,2.88,1.6,0,3.07-.42,4.41-1.27,1.34-.85,2.42-2.06,3.24-3.64l1.2.93c-1.1,1.92-2.43,3.32-3.98,4.21-1.56.88-3.53,1.32-5.91,1.32s-4.39-.51-6.09-1.53"/>
        <path class="cls-8" d="M341.14,7.99h-2.44c-1.28,0-2.26.32-2.94.96-.68.64-1.01,1.69-1.01,3.16h-1.03v-2.92c0-1.83.97-2.75,2.92-2.75h16.14v1.54h-7.18v21.11h-4.46V7.99Z"/>
        <path class="cls-8" d="M357.18,28.71c-.43-.26-.74-.71-.93-1.34-.18-.63-.27-1.54-.27-2.73V6.44h4.46v18.2c0,1.17.16,2.03.48,2.59.32.56.96.84,1.92.84h.34v1.03h-4.12c-.82,0-1.45-.13-1.89-.39"/>
        <path class="cls-8" d="M369.12,12.11v16.99h-1.72V10.56c0-.96-.24-1.72-.7-2.27s-1.26-.82-2.39-.82h-.17v-1.03h2.4c1.28,0,2.33.17,3.14.5.81.33,1.49.85,2.04,1.56l11.81,13.73V6.44h1.72v22.76h-1.58l-14.56-17.1Z"/>
        <path class="cls-8" d="M395.37,28.16c-1.89-1.09-3.36-2.57-4.43-4.46-1.06-1.89-1.6-3.98-1.6-6.27s.47-4.18,1.41-5.96c.94-1.77,2.27-3.17,4-4.19,1.73-1.02,3.7-1.53,5.92-1.53,2.01,0,3.73.26,5.15.79,1.42.53,2.47,1.19,3.16,1.99.39.5.64,1.14.74,1.92.1.78.15,1.73.15,2.85h-1.03c-.44-2.08-1.23-3.6-2.39-4.57-1.16-.96-2.74-1.44-4.75-1.44-2.56,0-4.46.96-5.7,2.88-1.24,1.92-1.85,4.34-1.85,7.24,0,3.91.68,6.72,2.04,8.43,1.36,1.71,3.2,2.56,5.51,2.56,1.79,0,3.33-.3,4.63-.89v-6.11c0-1.21.46-2.21,1.37-3,.92-.79,2.68-1.18,5.29-1.18v.86c-1.47,0-2.2,1.09-2.2,3.26v6.15c-1.3.8-2.7,1.38-4.19,1.75-1.49.37-3.12.55-4.91.55-2.33,0-4.45-.54-6.33-1.63"/>
      </g>
    </g>
  </g>
</svg>