<svg id="Layer_1" enable-background="new 0 0 512 512" height="512" viewBox="0 0 512 512" width="512" xmlns="http://www.w3.org/2000/svg"><g clip-rule="evenodd" fill-rule="evenodd"><g><g><path d="m136.444 261.013 10.558 27.809c.317.836 1.056 1.373 1.949 1.416l29.71 1.448c2.021.098 2.848 2.644 1.271 3.911l-23.185 18.635c-.697.56-.979 1.429-.744 2.292l7.804 28.704c.531 1.952-1.634 3.525-3.327 2.417l-24.888-16.292c-.748-.49-1.661-.49-2.409 0l-24.887 16.292c-1.693 1.108-3.858-.465-3.327-2.417l7.804-28.704c.234-.863-.048-1.731-.744-2.291l-23.185-18.635c-1.577-1.267-.749-3.813 1.271-3.911l29.71-1.448c.893-.044 1.632-.58 1.949-1.416l10.558-27.809c.713-1.882 3.398-1.882 4.112-.001z" fill="#ffe177"/><path d="m169.27 291.228 9.392.458c2.02.099 2.847 2.644 1.271 3.911l-23.185 18.635c-.697.56-.979 1.428-.745 2.291l7.804 28.704c.531 1.952-1.634 3.525-3.327 2.417l-6.44-4.216-7.439-27.364c-.235-.863.047-1.731.744-2.291l23.185-18.635c1.573-1.264.752-3.802-1.26-3.91zm-32.826-30.216 10.559 27.809c.315.829 1.045 1.364 1.928 1.415l-9.382-.457c-.893-.043-1.632-.58-1.949-1.416l-7.826-20.612 2.558-6.739c.713-1.88 3.398-1.88 4.112 0zm-.852 70.341c-.748-.49-1.661-.49-2.409 0l-24.887 16.292c-1.693 1.108-3.858-.465-3.327-2.417l.668-2.456 22.495-14.726c.748-.49 1.662-.489 2.409 0z" fill="#ffd064"/></g><g><path d="m252.715 284.279 13.133 34.591c.395 1.04 1.314 1.707 2.425 1.762l36.956 1.801c2.513.122 3.542 3.289 1.581 4.865l-28.839 23.18c-.867.697-1.218 1.777-.926 2.85l9.707 35.703c.66 2.428-2.033 4.385-4.139 3.007l-30.957-20.265c-.931-.609-2.066-.609-2.997 0l-30.957 20.265c-2.105 1.378-4.799-.578-4.138-3.007l9.706-35.704c.292-1.073-.059-2.154-.926-2.85l-28.839-23.179c-1.961-1.577-.933-4.743 1.581-4.865l36.956-1.801c1.111-.054 2.03-.722 2.425-1.762l13.133-34.591c.887-2.339 4.228-2.339 5.115 0z" fill="#ffe177"/><path d="m293.547 321.863 11.682.569c2.513.123 3.542 3.289 1.581 4.865l-28.839 23.18c-.867.697-1.218 1.777-.926 2.85l9.707 35.704c.66 2.428-2.033 4.385-4.139 3.007l-8.011-5.244-9.254-34.037c-.292-1.073.059-2.153.926-2.85l28.839-23.18c1.958-1.573.936-4.729-1.566-4.864zm-40.832-37.584 13.133 34.591c.391 1.032 1.299 1.697 2.398 1.76l-11.67-.569c-1.111-.054-2.03-.722-2.424-1.761l-9.734-25.639 3.182-8.382c.887-2.339 4.228-2.339 5.115 0zm-1.06 87.494c-.93-.609-2.066-.609-2.997 0l-30.956 20.265c-2.105 1.378-4.798-.578-4.139-3.007l.831-3.055 27.98-18.317c.931-.609 2.067-.609 2.997 0z" fill="#ffd064"/></g><g><path d="m97.467 221.981h90.705c2.537 0 4.721-1.098 6.234-3.135s1.934-4.444 1.202-6.873c-6.838-22.675-27.884-39.189-52.788-39.189-24.905 0-45.95 16.515-52.788 39.189-.733 2.43-.312 4.837 1.202 6.874 1.512 2.036 3.695 3.134 6.233 3.134z" fill="#8ac9fe"/><path d="m188.172 221.981c2.537 0 4.721-1.098 6.234-3.135s1.935-4.444 1.202-6.873c-6.838-22.675-27.884-39.189-52.788-39.189-2.636 0-5.229.187-7.767.545 21.434 3.023 38.907 18.37 45.021 38.644.733 2.429.311 4.837-1.202 6.873-1.513 2.038-3.697 3.135-6.234 3.135z" fill="#60b7ff"/><ellipse cx="142.819" cy="144.908" fill="#f6dccd" rx="27.874" ry="27.874" transform="matrix(.707 -.707 .707 .707 -60.635 143.431)"/><path d="m142.82 117.034c15.394 0 27.874 12.48 27.874 27.874s-12.48 27.874-27.874 27.874c-1.318 0-2.614-.094-3.883-.27 13.556-1.89 23.991-13.527 23.991-27.604 0-14.076-10.435-25.714-23.991-27.604 1.268-.176 2.564-.27 3.883-.27z" fill="#f1cbbc"/></g><g><path d="m312.142 221.981h90.705c2.537 0 4.721-1.098 6.234-3.135s1.934-4.444 1.202-6.873c-6.838-22.675-27.884-39.189-52.788-39.189-24.905 0-45.951 16.515-52.788 39.189-.733 2.43-.312 4.837 1.202 6.874 1.512 2.036 3.696 3.134 6.233 3.134z" fill="#8ac9fe"/><path d="m402.847 221.981c2.537 0 4.721-1.098 6.234-3.135s1.935-4.444 1.202-6.873c-6.838-22.675-27.884-39.189-52.788-39.189-2.637 0-5.229.187-7.767.545 21.434 3.023 38.907 18.37 45.022 38.644.733 2.429.312 4.837-1.202 6.873-1.513 2.038-3.697 3.135-6.234 3.135z" fill="#60b7ff"/><ellipse cx="357.495" cy="144.908" fill="#f6dccd" rx="27.874" ry="27.874" transform="matrix(.957 -.29 .29 .957 -26.653 109.813)"/><path d="m357.495 117.034c15.394 0 27.874 12.48 27.874 27.874s-12.48 27.874-27.874 27.874c-1.318 0-2.614-.094-3.884-.27 13.556-1.89 23.991-13.527 23.991-27.604 0-14.076-10.435-25.714-23.991-27.604 1.269-.176 2.566-.27 3.884-.27z" fill="#f1cbbc"/></g><g><path d="m196.363 235.492h107.588c3.009 0 5.6-1.302 7.394-3.719 1.795-2.416 2.294-5.272 1.425-8.153-8.111-26.895-33.074-46.484-62.613-46.484-29.54 0-54.503 19.589-62.614 46.484-.869 2.882-.37 5.737 1.425 8.153 1.796 2.417 4.386 3.719 7.395 3.719z" fill="#8ac9fe"/><path d="m303.951 235.492c3.009 0 5.6-1.302 7.394-3.719 1.795-2.417 2.294-5.271 1.425-8.153-8.111-26.895-33.074-46.484-62.613-46.484-3.127 0-6.202.222-9.212.646 25.423 3.585 46.149 21.789 53.401 45.837.869 2.881.37 5.736-1.425 8.153s-4.385 3.719-7.395 3.719h18.425z" fill="#60b7ff"/><circle cx="250.157" cy="144.075" fill="#f6dccd" r="33.062"/><path d="m250.157 111.012c18.26 0 33.062 14.803 33.062 33.062 0 18.26-14.802 33.062-33.062 33.062-1.563 0-3.101-.111-4.606-.321 16.079-2.242 28.456-16.045 28.456-32.742 0-16.696-12.377-30.499-28.456-32.741 1.506-.208 3.043-.32 4.606-.32z" fill="#f1cbbc"/></g><g><circle cx="378.265" cy="376.686" fill="#8ac9fe" r="117.705"/><path d="m378.264 258.981c65.007 0 117.705 52.698 117.705 117.705s-52.699 117.705-117.705 117.705c-2.666 0-5.309-.097-7.93-.272 61.308-4.08 109.775-55.092 109.775-117.433s-48.467-113.353-109.775-117.433c2.622-.175 5.264-.272 7.93-.272z" fill="#60b7ff"/></g><g><path d="m419.096 363.007c-.051 51.684-.051 77.484 0 77.402h25.762c2.241 0 4.068-1.827 4.068-4.068v-69.267c0-2.24-1.827-4.068-4.068-4.068h-25.762z" fill="#d1d1d6"/><path d="m448.926 436.341c0 2.241-1.827 4.068-4.068 4.068h-25.789v-77.402h4.068v73.334z" fill="#b1b1b5"/><path d="m354.827 448.171c30 5.165 47.44 8.939 64.878-7.762v-77.402c-13.745-10.325-31.897-19.17-31.897-38.699v-23.498c-15.5 0-28.183 12.678-28.183 28.18v18.227c.535 3.879 3.016 9.544 7.815 14.347-43.64 11.222-25.063 87.141-12.613 86.607z" fill="#f6dccd"/><path d="m412.859 445.935c2.301-1.523 4.574-3.349 6.846-5.526v-77.402c-13.745-10.325-31.897-19.17-31.897-38.699v-23.498c-7.642 0-14.599 3.083-19.689 8.067 4.227-2.536 9.163-3.999 14.425-3.999v23.497c0 19.529 18.152 28.375 31.897 38.699v77.402c-.528.506-1.055.991-1.582 1.459z" fill="#f1cbbc"/><path d="m351.415 448.705h-18.077c-6.159.001-11.198-5.039-11.198-11.197s5.038-11.198 11.198-11.198h-6.679c-6.159 0-11.197-5.039-11.197-11.198s5.039-11.198 11.197-11.198h-7.858c-6.159 0-11.198-5.039-11.198-11.197 0-6.159 5.039-11.198 11.198-11.198h4.717c-6.159 0-11.198-5.039-11.198-11.198 0-6.159 5.039-11.198 11.197-11.198h27.897c6.159 0 11.198 5.038 11.198 11.198 0 6.159-5.039 11.198-11.198 11.198h4.717c6.159 0 11.198 5.039 11.198 11.198s-5.039 11.197-11.198 11.197h-4.717c6.159 0 11.198 5.039 11.198 11.198s-5.039 11.198-11.198 11.198c6.159 0 11.198 5.039 11.198 11.198.001 6.159-5.038 11.198-11.197 11.197z" fill="#f6dccd"/><g fill="#f1cbbc"><path d="m351.415 448.705h-18.077c-6.159.001-11.198-5.039-11.198-11.197h40.472c.001 6.159-5.038 11.198-11.197 11.197z"/><path d="m333.338 426.31h-6.679c-6.159 0-11.198-5.039-11.198-11.198h47.152c0 6.159-5.039 11.198-11.198 11.198z"/><path d="m326.659 403.914h-7.858c-6.159 0-11.198-5.039-11.198-11.197h59.727c0 6.159-5.039 11.197-11.199 11.197h-4.717z"/><path d="m323.519 381.519c-6.159 0-11.198-5.039-11.198-11.198h50.292c0 6.159-5.039 11.198-11.198 11.198z"/></g></g></g><path d="m440.959 371.013h-13.848c-.019 34.52-.028 52.519-.019 61.401h13.866v-61.401zm-29.86 65.849c0-.395 0-46.028.023-69.798-1.012-.72-2.033-1.441-3.092-2.189-12.558-8.849-28.189-19.872-28.189-40.559v-13.852c-7.159 3.102-12.191 10.242-12.191 18.531v17.571c.4 1.991 1.911 5.78 5.484 9.348 2.72 2.72 3.107 6.999.937 10.172-2.819 4.128-3.808 7.846-2.998 11.39 1.167 5.107 6.472 10.807 14.182 15.227 3.827 2.203 5.149 7.093 2.947 10.934-1.478 2.57-4.18 4.01-6.947 4.01-1.351 0-2.72-.344-3.973-1.064-1.511-.871-3.267-1.968-5.107-3.281-.932 1.403-2.043 2.674-3.29 3.78 1.13 2.452 1.76 5.173 1.76 8.035 0 4.18-1.342 8.049-3.615 11.198 2.273 3.149 3.615 7.018 3.615 11.202 0 1.765-.264 3.488-.711 5.116 19.217 3.12 30.085 3.45 41.165-5.771zm-59.66 3.85c1.742 0 3.201-1.468 3.201-3.196 0-1.732-1.459-3.201-3.201-3.201-.009 0-.009 0-.019 0h-18.051c-1.737 0-3.196 1.469-3.196 3.201 0 1.727 1.459 3.196 3.196 3.196zm-24.749-22.4h24.749c1.742 0 3.201-1.459 3.201-3.196 0-1.732-1.459-3.201-3.201-3.201h-24.749c-1.737 0-3.201 1.469-3.201 3.201.001 1.737 1.464 3.196 3.201 3.196zm-7.86-22.4h37.33c1.732 0 3.201-1.459 3.201-3.186 0-1.742-1.469-3.201-3.201-3.201h-37.33c-1.727 0-3.201 1.459-3.201 3.201 0 1.727 1.473 3.186 3.201 3.186zm1.52-25.586c0 1.727 1.459 3.196 3.201 3.196h27.888c1.742 0 3.201-1.468 3.201-3.196 0-1.732-1.459-3.201-3.201-3.201h-27.888c-1.742 0-3.201 1.468-3.201 3.201zm136.613-7.31v77.4c0 4.42-3.582 7.997-8.002 7.997h-26.749c-10.581 9.169-21.11 12.172-33.23 12.172-9.4 0-19.75-1.803-31.818-3.893l-2.01-.348c-1.2.24-2.443.372-3.714.372h-18.07c-10.586 0-19.199-8.623-19.199-19.199 0-2.41.452-4.721 1.261-6.853-4.81-3.502-7.94-9.16-7.94-15.547 0-2.174.358-4.26 1.031-6.199-5.342-3.422-8.891-9.404-8.891-16.192 0-5.714 2.509-10.849 6.481-14.37-1.13-2.452-1.761-5.168-1.761-8.03 0-10.591 8.609-19.204 19.2-19.204h27.888c.301 0 .584.033.88.052-.25-.97-.456-1.921-.588-2.857-.052-.372-.08-.734-.08-1.092v-18.23c0-19.948 16.229-36.182 36.191-36.182 4.41 0 8.002 3.582 8.002 8.002v23.501c0 11.56 8.086 18.098 21.407 27.488 1.478 1.04 2.989 2.118 4.49 3.21h27.22c4.419 0 8.001 3.582 8.001 8.002zm31.037 13.668c0 60.498-49.206 109.708-109.708 109.708-60.493 0-109.703-49.21-109.703-109.708 0-60.488 49.21-109.703 109.703-109.703 60.502 0 109.708 49.215 109.708 109.703zm-234.751-12.91c1.323-12.921 4.613-25.262 9.564-36.728-1.982-1.224-3.554-3.074-4.41-5.333l-8.213-21.628-8.209 21.628c-1.52 3.992-5.258 6.703-9.517 6.91l-23.111 1.135 18.037 14.487c3.333 2.678 4.754 7.07 3.634 11.188l-6.072 22.32 19.359-12.671c2.682-1.756 5.958-2.189 8.938-1.308zm250.749 12.91c0 69.318-56.388 125.711-125.707 125.711-23.111 0-44.791-6.284-63.411-17.213-21.011 5.813-42.762 8.769-64.71 8.769-51.3 0-101.329-16.389-142.557-46.419l4.876 17.133c1.21 4.25-1.247 8.68-5.498 9.889-.73.207-1.473.311-2.203.311-3.478 0-6.679-2.292-7.677-5.813l-11.862-41.538c-.668-2.367-.221-4.909 1.219-6.9 1.45-1.991 3.733-3.201 6.189-3.29l43.172-1.549c4.42-.179 8.129 3.29 8.289 7.696.15 4.424-3.299 8.133-7.71 8.293l-22.141.791c39.025 29.338 86.833 45.398 135.902 45.398 15.999 0 31.871-1.68 47.389-4.989-26.208-22.019-43.327-54.501-44.847-90.961l-2.523-1.647-28.077 18.38c-1.803 1.177-3.841 1.765-5.879 1.765-2.213 0-4.415-.687-6.303-2.066-3.653-2.641-5.239-7.164-4.053-11.499l8.802-32.383-26.161-21.016c-3.497-2.824-4.867-7.404-3.478-11.682 1.389-4.279 5.201-7.192 9.692-7.409l33.508-1.633 11.909-31.366c1.591-4.199 5.53-6.915 10.04-6.915 4.5 0 8.439 2.711 10.03 6.915l11.122 29.267c22.169-35.819 61.82-59.731 106.95-59.731 37.457 0 71.14 16.474 94.189 42.555 2.57-13.735 3.869-27.719 3.869-41.76 0-39.999-10.591-79.306-30.609-113.671-2.231-3.822-.932-8.717 2.881-10.939 3.822-2.231 8.722-.936 10.939 2.881 21.449 36.813 32.788 78.902 32.788 121.729 0 19.858-2.419 39.609-7.197 58.766 11.939 19.232 18.848 41.891 18.848 66.14zm-398.206-77.748 11.278 9.066c3.163 2.542 4.514 6.712 3.455 10.623l-3.803 13.961 12.111-7.922c1.699-1.111 3.638-1.671 5.587-1.671 1.944 0 3.883.56 5.583 1.671l12.111 7.922-3.803-13.961c-1.059-3.911.292-8.082 3.45-10.623l11.282-9.066-14.45-.701c-4.048-.202-7.602-2.782-9.037-6.571l-5.135-13.528-5.14 13.528c-1.436 3.794-4.989 6.368-9.037 6.571zm-1.709 19.157-6.801 25.041c-1.12 4.123.391 8.411 3.841 10.929 1.798 1.304 3.897 1.963 6.001 1.963 1.925 0 3.869-.56 5.587-1.68l21.708-14.21 21.713 14.21c3.577 2.339 8.12 2.231 11.579-.282 3.46-2.509 4.97-6.801 3.85-10.929l-6.811-25.041 20.23-16.257c3.328-2.683 4.632-7.037 3.314-11.104-1.332-4.067-4.942-6.825-9.211-7.032l-25.921-1.266-9.211-24.26c-1.511-3.991-5.257-6.571-9.532-6.571-4.278 0-8.02 2.579-9.536 6.571l-9.212 24.26-25.92 1.265c-4.269.207-7.88 2.965-9.202 7.032-1.318 4.067-.019 8.421 3.314 11.104zm298.487-104.111c-5.959-19.425-23.977-33.188-45.04-33.193h-.009c-.01 0-.01 0-.01 0-18.22.005-34.911 10.717-42.621 27.017 1.068 2.001 2.052 4.062 2.942 6.176zm-96.967 13.513c-6.632-24.673-29.065-42.348-55.405-42.352-.009 0-.009 0-.009 0-.009 0-.009 0-.009 0-26.349.005-48.777 17.679-55.4 42.352zm-123.061-13.513c.89-2.113 1.869-4.175 2.951-6.176-7.724-16.3-24.4-27.013-42.621-27.017-.01 0-.01 0-.01 0-.014 0-.014 0-.023 0-21.059.005-39.076 13.768-45.026 33.193zm-39.693-49.192h.014c10.958-.005 19.868-8.919 19.868-19.877s-8.919-19.873-19.868-19.873c-10.962 0-19.882 8.915-19.882 19.873s8.91 19.872 19.868 19.877zm107.331 4.354h.009.009c13.81-.005 25.055-11.249 25.055-25.064s-11.245-25.059-25.064-25.059-25.059 11.245-25.059 25.059c0 13.815 11.231 25.059 25.05 25.064zm107.331-4.354h.01.009c10.953-.005 19.863-8.919 19.863-19.877s-8.91-19.873-19.872-19.873c-10.958 0-19.868 8.915-19.868 19.873s8.91 19.872 19.858 19.877zm62.771 56.341c-2.471-23.134-17.161-42.164-37.269-51.008 6.406-6.486 10.379-15.392 10.379-25.21 0-19.778-16.093-35.871-35.871-35.871-19.779 0-35.871 16.093-35.871 35.871 0 9.856 3.992 18.79 10.44 25.28-11.071 4.909-20.64 12.939-27.366 23.153-7.39-8.195-16.601-14.676-26.975-18.86 8.294-7.517 13.504-18.366 13.504-30.407 0-22.64-18.418-41.058-41.063-41.058-22.64 0-41.058 18.418-41.058 41.058 0 12.04 5.201 22.885 13.49 30.407-10.369 4.184-19.571 10.666-26.97 18.86-6.731-10.214-16.3-18.244-27.37-23.153 6.448-6.491 10.449-15.424 10.449-25.28 0-19.778-16.088-35.871-35.867-35.871-19.783 0-35.88 16.093-35.88 35.871 0 9.818 3.968 18.724 10.379 25.21-20.113 8.844-34.789 27.874-37.269 51.008-.24 2.259.489 4.509 2 6.199 1.52 1.69 3.69 2.655 5.949 2.655h89.85c-.273 1.539-.499 3.088-.668 4.66-.245 2.255.49 4.509 1.996 6.199 1.521 1.685 3.69 2.65 5.954 2.65h130.028c2.273 0 4.429-.965 5.949-2.65 1.52-1.69 2.25-3.944 2-6.199-.16-1.572-.4-3.121-.659-4.66h89.84c2.269 0 4.429-.965 5.949-2.655 1.52-1.689 2.24-3.939 2-6.199zm-365.673 144.332c2.222 3.822.932 8.722-2.876 10.939-1.271.744-2.664 1.092-4.024 1.092-2.758 0-5.436-1.422-6.919-3.982-21.45-36.808-32.788-78.902-32.788-121.734 0-64.691 25.191-125.504 70.928-171.245 45.741-45.742 106.563-70.929 171.24-70.929 51.31 0 101.339 16.385 142.581 46.424l-4.891-17.143c-1.21-4.25 1.247-8.675 5.502-9.889 4.236-1.214 8.666 1.247 9.875 5.498l11.861 41.543c.668 2.368.221 4.909-1.219 6.9-1.45 1.991-3.728 3.205-6.19 3.29l-43.171 1.553c-.099 0-.198.005-.287.005-4.293 0-7.842-3.394-7.992-7.715-.16-4.415 3.29-8.119 7.701-8.279l22.122-.796c-39.02-29.342-86.833-45.393-135.892-45.393-124.708.001-226.17 101.462-226.17 226.176 0 40.004 10.591 79.315 30.609 113.685z"/></g></svg>