<svg id="Layer_1" 
viewBox="0 0 512 512" 
xmlns="http://www.w3.org/2000/svg" 
data-name="Layer 1"
><path 
d="m142.93 201.981-21.858 92.992c-1.999 8.568 3.338 17.165 11.883 19.158l17.97 4.23c1.203.279 2.406.413 3.594.413 6.203 0 11.929-3.658 14.544-9.335l47.86 47.719c4.108 4.108 9.506 6.163 14.909 6.163s10.85-2.068 14.988-6.207c1.236-1.243 2.277-2.626 3.155-4.094l.283.283c3.978 3.978 9.277 6.167 14.927 6.167h.03c5.66-.008 10.966-2.213 14.926-6.195 1.393-1.394 2.553-2.957 3.49-4.633 3.356 2.044 7.156 3.088 10.967 3.088 5.417 0 10.838-2.065 14.967-6.193 3.512-3.512 5.509-7.967 6.02-12.56 4.575-.529 9.013-2.531 12.518-6.035 3.136-3.135 5.14-7.098 5.857-11.4.191.004.383.014.575.014 3.538 0 7.118-.734 10.529-2.242l.276-.123c1.055 1.227 2.299 2.305 3.717 3.184 2.563 1.588 5.451 2.406 8.391 2.406 1.216 0 2.44-.14 3.655-.423l17.93-4.22c8.56-1.997 13.896-10.593 11.895-19.172l-21.827-92.979-.01-.041c-2.044-8.51-10.644-13.826-19.193-11.843l-17.927 4.22c-4.142.966-7.662 3.499-9.913 7.131-2.245 3.624-2.951 7.896-1.983 12.043l.882 3.754c-5.151 1.624-10.032 1.241-14.907-1.226l-27.91-13.998c-14.16-7.132-30.655-4.373-41.671 6.771h-44.152c-.171-2.573-.972-5.084-2.372-7.343-2.251-3.633-5.771-6.166-9.896-7.127l-17.958-4.228c-4.133-.965-8.407-.26-12.031 1.986-3.629 2.249-6.16 5.764-7.129 9.899zm210.603 3.695 21.849 92.881-17.876 4.255-21.886-92.915 17.913-4.222zm-82.579 10.644 27.897 13.991c8.184 4.142 17.036 5.001 25.774 2.549l15.329 65.212-1.381.615c-3.85 1.702-7.917.946-10.895-2.025l-5.13-5.13c-.048-.048-.1-.088-.148-.134l-37.851-37.751c-8.801-8.761-22.165-10.077-32.494-3.204l-13.774 9.154c-7.697 5.11-17.456 5.641-25.454 1.395-.339-.181-.422-.296-.479-.604-.081-.466.004-.561.217-.795l34.5-38.724c6.095-6.845 15.69-8.677 23.889-4.548zm-81.678 8.475h32.862l-21.476 24.106c-3.542 3.911-4.99 8.961-4.064 14.299.954 5.192 4.041 9.419 8.708 11.913 13.204 7.013 29.231 6.176 41.828-2.189l13.781-9.158c3.924-2.61 9.002-2.11 12.342 1.215l43.108 42.996s.006.006.009.009l.404.404c.961.956 1.491 2.24 1.493 3.618s-.524 2.664-1.481 3.621c-.963.963-2.257 1.495-3.644 1.498h-.011c-1.373 0-2.651-.522-3.607-1.479l-37.39-37.277c-3.13-3.12-8.195-3.111-11.313.017-3.12 3.129-3.112 8.194.017 11.314l37.381 37.268c.964.963 1.495 2.257 1.498 3.644.003 1.377-.519 2.66-1.47 3.61-.963.963-2.257 1.495-3.644 1.498h-.011c-1.373 0-2.651-.522-3.607-1.478l-10.857-10.826c-.012-.012-.022-.025-.034-.038-.011-.011-.024-.021-.035-.031l-28.703-28.621c-3.129-3.12-8.194-3.112-11.313.016-3.12 3.129-3.112 8.194.017 11.314l28.769 28.687c.949.953 1.473 2.229 1.475 3.598.002 1.378-.523 2.664-1.495 3.636-.955.961-2.24 1.491-3.618 1.493h-.007c-1.376 0-2.659-.525-3.621-1.488l-30.955-30.87c-3.128-3.12-8.192-3.113-11.314.016-3.119 3.128-3.112 8.194.016 11.313l16.174 16.13-.008.008c.962.956 1.492 2.238 1.493 3.609.002 1.379-.529 2.673-1.48 3.629-1.973 1.974-5.295 1.986-7.262.02l-54.59-54.429 15.638-66.613zm-12.923-14.959-21.788 92.945-17.913-4.159 21.845-92.935 17.856 4.148zm-17.913-4.162h.007s-.009.006-.009.006zm208.462 248.695c2.132 3.87.724 8.735-3.146 10.868-32.813 18.082-70.075 27.64-107.755 27.64-31.359 0-62.418-6.642-90.875-19.286l3.028 9.985c1.282 4.228-1.105 8.695-5.334 9.978-.773.234-1.556.346-2.324.346-3.433 0-6.605-2.226-7.652-5.68l-8.391-27.667c-1.282-4.225 1.103-8.69 5.326-9.975l27.667-8.419c4.227-1.287 8.696 1.097 9.982 5.324s-1.098 8.696-5.324 9.982l-8.236 2.506c25.8 11.098 53.835 16.906 82.132 16.906 34.987 0 69.577-8.871 100.032-25.653 3.871-2.133 8.735-.724 10.868 3.146zm-333.49-188.036c.725-37.479 11.074-74.54 29.93-107.174 15.66-27.147 36.938-50.721 62.129-69.045l-10.155-2.36c-4.304-1-6.982-5.3-5.981-9.604 1-4.303 5.299-6.981 9.603-5.981l28.177 6.548c2.068.481 3.86 1.764 4.982 3.566 1.121 1.802 1.48 3.977.998 6.044l-6.576 28.177c-.861 3.691-4.15 6.183-7.784 6.184-.602 0-1.214-.068-1.825-.211-4.303-1.004-6.977-5.306-5.973-9.609l1.954-8.371c-22.52 16.796-41.562 38.166-55.692 62.661-17.508 30.303-27.116 64.702-27.79 99.484-.084 4.365-3.649 7.845-7.995 7.845-.053 0-.104 0-.157-.001-4.418-.085-7.93-3.736-7.844-8.153zm326.438-183.959c2.284-3.782 7.202-4.997 10.983-2.712 32.08 19.375 59.002 46.865 77.854 79.498 15.676 27.172 25.443 57.399 28.706 88.367l7.146-7.627c3.02-3.224 8.081-3.39 11.308-.368 3.225 3.021 3.389 8.083.368 11.308l-19.786 21.119c-1.451 1.549-3.458 2.458-5.58 2.526-.086.002-.172.004-.258.004-2.03 0-3.988-.772-5.474-2.166l-21.091-19.787c-3.223-3.023-3.384-8.086-.36-11.308 3.021-3.221 8.084-3.384 11.308-.361l6.251 5.865c-3.278-27.885-12.254-55.065-26.394-79.573-17.504-30.296-42.495-55.818-72.27-73.801-3.782-2.285-4.996-7.202-2.712-10.984zm-274.274 218.153c-40.019 0-72.576 32.557-72.576 72.575s32.558 72.576 72.576 72.576 72.547-32.557 72.547-72.576-32.544-72.575-72.547-72.575zm0 16c31.18 0 56.547 25.379 56.547 56.575 0 10.027-2.632 19.445-7.224 27.62-5.686-8.695-15.259-14.851-26.362-16.354 5.688-7.545 8.652-17.726 8.652-27.594 0-17.432-14.182-31.613-31.613-31.613s-31.643 14.182-31.643 31.613c0 9.868 2.966 20.049 8.66 27.594-11.105 1.501-20.681 7.657-26.368 16.352-4.593-8.175-7.226-17.593-7.226-27.618 0-31.196 25.38-56.575 56.576-56.575zm-15.643 40.247c0-8.609 7.018-15.613 15.643-15.613s15.613 7.004 15.613 15.613c0 7.638-3.816 23.409-15.613 23.409-10.789 0-15.643-13.689-15.643-23.409zm-22.651 57.929c2.222-8.461 10.642-14.693 20.604-14.693h35.35c9.965 0 18.387 6.236 20.606 14.7-10.078 9.285-23.519 14.968-38.266 14.968s-28.21-5.686-38.293-14.975zm379.17-114.176c-40.019 0-72.575 32.557-72.575 72.575s32.557 72.576 72.575 72.576 72.547-32.557 72.547-72.576-32.544-72.575-72.547-72.575zm0 16c31.18 0 56.547 25.379 56.547 56.575 0 10.026-2.632 19.445-7.223 27.62-5.686-8.694-15.259-14.85-26.362-16.354 5.688-7.545 8.652-17.726 8.652-27.594 0-17.432-14.182-31.613-31.614-31.613s-31.642 14.182-31.642 31.613c0 9.868 2.966 20.049 8.659 27.594-11.104 1.501-20.68 7.657-26.367 16.352-4.593-8.175-7.226-17.592-7.226-27.617 0-31.196 25.38-56.575 56.575-56.575zm-15.642 40.247c0-8.609 7.017-15.613 15.642-15.613s15.614 7.004 15.614 15.613c0 7.638-3.816 23.409-15.614 23.409-10.789 0-15.642-13.689-15.642-23.409zm-22.652 57.928c2.222-8.46 10.643-14.692 20.605-14.692h35.35c9.965 0 18.386 6.236 20.605 14.7-10.078 9.285-23.52 14.968-38.267 14.968s-28.21-5.686-38.293-14.976zm-132.16-251.449c40.019 0 72.576-32.557 72.576-72.576s-32.558-72.575-72.576-72.575-72.575 32.557-72.575 72.575 32.557 72.576 72.575 72.576zm-38.282-30.965c2.249-8.469 10.674-14.703 20.622-14.703h35.321c9.969 0 18.396 6.233 20.628 14.697-10.083 9.287-23.533 14.971-38.289 14.971s-28.2-5.682-38.282-14.965zm22.668-57.911c0-8.625 7.004-15.642 15.613-15.642s15.614 7.017 15.614 15.642c0 7.628-3.816 23.381-15.614 23.381-10.77 0-15.613-13.672-15.613-23.381zm15.613-40.275c31.196 0 56.576 25.379 56.576 56.575 0 10.03-2.635 19.451-7.231 27.628-5.69-8.698-15.268-14.857-26.377-16.361 5.685-7.539 8.646-17.709 8.646-27.567 0-17.447-14.182-31.642-31.614-31.642s-31.613 14.194-31.613 31.642c0 9.858 2.962 20.029 8.647 27.568-11.097 1.507-20.674 7.672-26.368 16.376-4.603-8.181-7.241-17.607-7.241-27.644 0-31.196 25.38-56.575 56.575-56.575z" fill="#0000cb"/><path d="m62.593 384.368c-5.693-7.545-8.66-17.726-8.66-27.594 0-17.432 14.194-31.613 31.643-31.613s31.613 14.182 31.613 31.613c0 9.868-2.964 20.05-8.652 27.594 11.104 1.503 20.677 7.659 26.362 16.354 4.592-8.175 7.224-17.594 7.224-27.62 0-31.196-25.367-56.575-56.547-56.575s-56.576 25.379-56.576 56.575c0 10.025 2.633 19.443 7.226 27.618 5.687-8.695 15.263-14.851 26.368-16.352z" fill="#c9d4fe"/><path d="m103.236 400.01h-35.35c-9.962 0-18.382 6.232-20.604 14.693 10.083 9.289 23.535 14.975 38.293 14.975s28.188-5.683 38.266-14.968c-2.219-8.464-10.641-14.7-20.606-14.7z" fill="#6582fd"/><path d="m101.189 356.774c0-8.609-7.004-15.613-15.613-15.613s-15.643 7.004-15.643 15.613c0 9.72 4.854 23.409 15.643 23.409 11.797 0 15.613-15.771 15.613-23.409z" fill="#c9d4fe"/><path d="m176.352 209.835-17.857-4.148-21.845 92.935 17.913 4.159z" fill="#6582fd"/><path d="m228.228 345.836c1.967 1.966 5.289 1.954 7.262-.02.951-.956 1.482-2.25 1.48-3.629 0-1.371-.531-2.653-1.493-3.609l.008-.008-16.174-16.13c-3.128-3.12-3.135-8.185-.016-11.313 3.122-3.128 8.187-3.135 11.314-.016l30.955 30.87c.962.962 2.245 1.488 3.621 1.488h.007c1.378-.002 2.663-.532 3.618-1.493.972-.972 1.497-2.257 1.495-3.636-.002-1.369-.526-2.644-1.475-3.598l-28.769-28.687c-3.129-3.12-3.137-8.185-.017-11.314 3.119-3.128 8.185-3.136 11.313-.016l28.703 28.621c.011.011.024.02.035.031.012.012.022.026.034.038l10.857 10.826c.956.956 2.234 1.478 3.607 1.478h.011c1.387-.003 2.681-.535 3.644-1.498.951-.951 1.473-2.233 1.47-3.61-.003-1.386-.534-2.68-1.498-3.644l-37.381-37.268c-3.129-3.12-3.137-8.185-.017-11.314 3.118-3.128 8.184-3.137 11.313-.017l37.39 37.277c.956.957 2.234 1.479 3.607 1.479h.011c1.387-.003 2.681-.535 3.644-1.498.957-.957 1.483-2.243 1.481-3.621-.002-1.377-.532-2.662-1.493-3.618l-.404-.404s-.006-.006-.009-.009l-43.108-42.996c-3.34-3.325-8.418-3.825-12.342-1.215l-13.781 9.158c-12.597 8.365-28.624 9.202-41.828 2.189-4.667-2.493-7.754-6.721-8.708-11.913-.926-5.338.522-10.389 4.064-14.299l21.476-24.106h-32.862l-15.638 66.613 54.59 54.429z" fill="#c9d4fe"/><path d="m158.438 205.674-.001.006.008-.005z" fill="#0f0"/><path d="m273.661 117.584h-35.321c-9.948 0-18.373 6.235-20.622 14.703 10.082 9.283 23.529 14.965 38.282 14.965s28.206-5.684 38.289-14.971c-2.231-8.464-10.659-14.697-20.628-14.697z" fill="#6582fd"/><g fill="#c9d4fe"><path d="m206.666 118.32c5.694-8.704 15.271-14.869 26.368-16.376-5.685-7.539-8.647-17.709-8.647-27.568 0-17.447 14.182-31.642 31.613-31.642s31.614 14.194 31.614 31.642c0 9.858-2.962 20.028-8.646 27.567 11.109 1.505 20.687 7.663 26.377 16.361 4.597-8.177 7.231-17.598 7.231-27.628 0-31.196-25.38-56.575-56.576-56.575s-56.575 25.379-56.575 56.575c0 10.036 2.638 19.463 7.241 27.644z"/><path d="m271.614 74.377c0-8.625-7.005-15.642-15.614-15.642s-15.613 7.017-15.613 15.642c0 9.708 4.844 23.381 15.613 23.381 11.798 0 15.614-15.752 15.614-23.381z"/><path d="m212.348 260.387c.057.307.14.422.479.604 7.998 4.247 17.757 3.716 25.454-1.395l13.774-9.154c10.329-6.873 23.693-5.557 32.494 3.204l37.851 37.751c.048.046.101.086.148.134l5.13 5.13c2.978 2.971 7.045 3.727 10.895 2.025l1.381-.615-15.329-65.212c-8.738 2.452-17.591 1.593-25.774-2.549l-27.897-13.991c-8.198-4.129-17.794-2.297-23.889 4.548l-34.5 38.724c-.213.235-.298.329-.217.795z"/></g><path d="m375.381 298.557-21.849-92.881-17.913 4.222 21.886 92.914z" fill="#6582fd"/><path d="m403.471 384.368c-5.693-7.545-8.659-17.726-8.659-27.594 0-17.432 14.194-31.613 31.642-31.613s31.614 14.182 31.614 31.613c0 9.868-2.964 20.05-8.652 27.594 11.103 1.503 20.676 7.659 26.362 16.354 4.591-8.175 7.223-17.594 7.223-27.62 0-31.196-25.367-56.575-56.547-56.575s-56.575 25.379-56.575 56.575c0 10.025 2.632 19.443 7.226 27.617 5.687-8.695 15.263-14.85 26.367-16.352z" fill="#c9d4fe"/><path d="m442.067 356.774c0-8.609-7.005-15.613-15.614-15.613s-15.642 7.004-15.642 15.613c0 9.72 4.853 23.409 15.642 23.409 11.798 0 15.614-15.771 15.614-23.409z" fill="#c9d4fe"/><path d="m444.114 400.01h-35.35c-9.962 0-18.383 6.232-20.605 14.692 10.083 9.29 23.535 14.976 38.293 14.976s28.189-5.683 38.267-14.968c-2.22-8.464-10.641-14.7-20.605-14.7z" fill="#6582fd"/></svg>