<svg id="Layer_1" viewBox="0 0 512 512" xmlns="http://www.w3.org/2000/svg" data-name="Layer 1"><g fill-rule="evenodd"><path d="m160.004 246.585 96 166.276 48 83.139h-288l48-83.139z" fill="#1840de"/><path d="m304.003 16h129.833l-32.458 32.458 32.458 32.459h-129.833z" fill="#d4e0ff"/><path d="m76.485 186.789v-46.689a5.416 5.416 0 0 1 5.4-5.4h78.115v-28.741l81.01 57.488-81.01 57.487v-28.744h-78.115a5.416 5.416 0 0 1 -5.4-5.401z" fill="#6c94fa"/><path d="m304.003 163.446 96 166.277 96.001 166.277h-192.001-191.999l96-166.277z" fill="#6c94fa"/></g><circle cx="422.083" cy="389.621" fill="#d4e0ff" r="73.921" transform="matrix(.707 -.707 .707 .707 -151.878 412.575)"/><path d="m112 502h-96a5.992 5.992 0 0 1 -4.893-9.474q71.865-124.471 143.714-248.941a5.982 5.982 0 0 1 10.541.337l42.638 73.853 90-155.884v-145.891a6 6 0 0 1 6-6h129.834a6.006 6.006 0 0 1 4.188 10.3l-28.163 28.158 28.217 28.216a6.007 6.007 0 0 1 -4.242 10.241l-123.834.002v74.95l87.563 151.665c51.355-16.532 104.437 21.744 104.437 76.089a79.7 79.7 0 0 1 -26.295 59.257l25.476 44.122a5.993 5.993 0 0 1 -5.18 8.986v.014zm344.876-142.647-47.809 47.809-21.783-21.783a6 6 0 0 0 -8.484 8.484l26.025 26.025a6 6 0 0 0 8.484 0l52.051-52.051a6 6 0 0 0 -8.484-8.484zm-70.5-41.253-82.382-142.694-181.617 314.594h363.248l-19.461-33.708a79.916 79.916 0 0 1 -100.6-10.159c-38.695-38.695-27.793-103.725 20.81-128.033zm83.73 23.493a67.922 67.922 0 1 0 0 96.056 67.924 67.924 0 0 0 0-96.056zm-269.006-11.882-41.088-71.166q-66.829 115.743-133.649 231.455h82.19zm-130.618-142.922a11.369 11.369 0 0 0 3.344 8.056l.012-.011a11.382 11.382 0 0 0 8.045 3.356h72.117v22.744h.017a6.008 6.008 0 0 0 9.452 4.875l80.9-57.411a5.993 5.993 0 0 0 .109-9.827l-80.648-57.231a6 6 0 0 0 -9.83 4.619v22.741h-72.117a11.44 11.44 0 0 0 -11.4 11.4v46.685zm12-46.086v45.487h77.518a6 6 0 0 1 6 6v17.149l64.671-45.893-64.671-45.892v17.146a6 6 0 0 1 -6 6zm336.867-118.703h-109.349v52.916h109.349l-22.216-22.216a6 6 0 0 1 0-8.484z" fill="#001060" fill-rule="evenodd"/></svg>