<svg id="Layer_1" enable-background="new 0 0 256 256" height="512" viewBox="0 0 256 256" width="512" xmlns="http://www.w3.org/2000/svg"><g><g><path d="m202.316 251.747h-161.367c-3.281 0-5.94-2.659-5.94-5.94v-223.24c0-3.281 2.659-5.94 5.94-5.94h161.367c3.281 0 5.94 2.659 5.94 5.94v223.24c0 3.281-2.66 5.94-5.94 5.94z" fill="#e0ebfc"/></g><g><path d="m202.315 253.748h-161.366c-4.378 0-7.94-3.562-7.94-7.94v-223.241c0-4.378 3.562-7.94 7.94-7.94h161.366c4.378 0 7.94 3.562 7.94 7.94v223.24c.001 4.379-3.562 7.941-7.94 7.941zm-161.366-235.121c-2.172 0-3.94 1.768-3.94 3.94v223.24c0 2.172 1.768 3.94 3.94 3.94h161.366c2.173 0 3.94-1.768 3.94-3.94v-223.24c0-2.172-1.768-3.94-3.94-3.94z" fill="#3762cc"/></g><g><g><path d="m122.292 230.38c-1.088 0-2.17-.445-2.953-1.32-1.458-1.63-1.319-4.133.311-5.591l18.239-16.319c2.41-2.157 5.632-3.177 8.847-2.796 3.212.379 6.109 2.122 7.95 4.781l2.682 3.871 3.492-4.746c1.815-2.467 4.484-4.06 7.517-4.486 3.04-.426 6.039.371 8.463 2.241l.999.77c1.731 1.336 2.052 3.823.716 5.554s-3.82 2.053-5.554.717l-1-.771c-.723-.559-1.622-.796-2.522-.669-.904.127-1.699.601-2.24 1.337l-5.179 7.039c-1.124 1.528-2.917 2.432-4.827 2.398-1.898-.027-3.677-.975-4.757-2.536l-4.3-6.21c-.557-.804-1.398-1.31-2.37-1.425-.962-.115-1.906.181-2.636.833l-18.239 16.319c-.756.677-1.699 1.009-2.639 1.009z" fill="#4671c6"/></g></g><g><g><path d="m157.93 45.914h-71.279c-2.187 0-3.96-1.773-3.96-3.96s1.773-3.96 3.96-3.96h71.279c2.187 0 3.96 1.773 3.96 3.96s-1.773 3.96-3.96 3.96z" fill="#4671c6"/></g></g><g><g><path d="m181.526 81.787h-119.787c-2.187 0-3.96-1.773-3.96-3.96s1.773-3.96 3.96-3.96h119.788c2.187 0 3.96 1.773 3.96 3.96s-1.774 3.96-3.961 3.96z" fill="#4671c6"/></g></g><g><g><path d="m181.526 105.249h-119.787c-2.187 0-3.96-1.773-3.96-3.96s1.773-3.96 3.96-3.96h119.788c2.187 0 3.96 1.773 3.96 3.96s-1.774 3.96-3.961 3.96z" fill="#4671c6"/></g></g><g><g><path d="m181.526 128.711h-119.787c-2.187 0-3.96-1.773-3.96-3.96s1.773-3.96 3.96-3.96h119.788c2.187 0 3.96 1.773 3.96 3.96s-1.774 3.96-3.961 3.96z" fill="#4671c6"/></g></g><g><g><path d="m181.526 152.172h-119.787c-2.187 0-3.96-1.773-3.96-3.96s1.773-3.96 3.96-3.96h119.788c2.187 0 3.96 1.773 3.96 3.96-.001 2.187-1.774 3.96-3.961 3.96z" fill="#4671c6"/></g></g><g><g><path d="m180.742 186.616h-45.044c-2.187 0-3.96-1.773-3.96-3.96s1.773-3.96 3.96-3.96h45.044c2.187 0 3.96 1.773 3.96 3.96s-1.773 3.96-3.96 3.96z" fill="#4671c6"/></g></g><g><circle cx="35.009" cy="36.262" fill="#6bdddd" r="32.009"/></g><g><g><path d="m28.647 51.016c-.103 0-.207-.004-.311-.012-1.155-.091-2.212-.683-2.893-1.62l-8.862-12.196c-1.286-1.769-.894-4.246.876-5.531 1.768-1.287 4.245-.894 5.531.876l6.137 8.445 18.309-18.309c1.547-1.546 4.054-1.546 5.601 0 1.546 1.546 1.546 4.054 0 5.601l-21.588 21.586c-.746.745-1.754 1.16-2.8 1.16z" fill="#e0ebfc"/></g></g><g><path d="m226.847 104.644 16.946 9.784 6.16-10.67c.6-1.04.244-2.37-.796-2.97l-13.18-7.61c-1.04-.6-2.37-.244-2.97.796z" fill="#f9a7a7"/></g><g><path d="m178.61 184.655h19.568v12.32h-19.568z" fill="#f9a7a7" transform="matrix(-.866 -.5 .5 -.866 256.14 450.262)"/></g><g><path d="m176.84 191.258 16.946 9.784-15.507 9.186c-.729.432-1.651-.1-1.641-.947z" fill="#a4c9ff"/></g><g><path d="m203.613 103.662h19.568v87.692h-19.568z" fill="#4671c6" transform="matrix(-.866 -.5 .5 -.866 324.45 381.952)"/></g><g><path d="m237.389 93.994 4.856-8.412c.82-1.421 2.637-1.907 4.057-1.087l5.212 3.009c1.42.82 1.907 2.637 1.087 4.057l-4.856 8.412z" fill="#a4c9ff"/></g><g><path d="m243.793 116.428c-.348 0-.693-.091-1-.268l-16.946-9.784c-.459-.265-.795-.702-.932-1.214-.138-.512-.065-1.058.199-1.518l6.16-10.669c.558-.966 1.458-1.656 2.535-1.945 1.076-.29 2.201-.141 3.168.417l13.18 7.609c1.993 1.151 2.679 3.709 1.528 5.702l-6.16 10.67c-.266.459-.702.794-1.215.932-.169.046-.343.068-.517.068zm-14.214-12.516 13.481 7.784 5.16-8.938c.042-.071.008-.197-.063-.238l-13.181-7.609c-.071-.04-.196-.006-.237.064z" fill="#3762cc"/></g><g><path d="m193.786 203.042c-.348 0-.693-.091-1-.268l-16.945-9.784c-.957-.552-1.284-1.775-.732-2.732l6.16-10.67c.266-.459.702-.794 1.215-.932.512-.137 1.059-.065 1.518.2l16.945 9.784c.957.552 1.284 1.775.732 2.732l-6.16 10.669c-.266.459-.702.794-1.215.932-.17.046-.345.069-.518.069zm-14.213-12.516 13.48 7.784 4.16-7.206-13.48-7.784z" fill="#3762cc"/></g><g><path d="m177.726 212.379c-.533 0-1.067-.138-1.544-.414-.965-.557-1.556-1.595-1.543-2.708l.202-18.022c.008-.71.393-1.363 1.01-1.715.616-.352 1.374-.35 1.99.006l16.945 9.784c.615.355.996 1.01 1 1.721s-.369 1.37-.98 1.732l-15.507 9.187c-.485.286-1.029.429-1.573.429zm1.077-17.679-.146 12.98 11.167-6.616z" fill="#3762cc"/></g><g><path d="m199.946 192.372c-.348 0-.693-.091-1-.268l-16.945-9.784c-.957-.552-1.284-1.775-.732-2.732l43.846-75.944c.266-.459.702-.794 1.215-.932s1.06-.066 1.518.2l16.946 9.784c.957.552 1.284 1.775.732 2.732l-43.847 75.944c-.266.459-.702.794-1.215.932-.17.046-.345.068-.518.068zm-14.213-12.516 13.48 7.784 41.847-72.48-13.481-7.784z" fill="#3762cc"/></g><g><path d="m247.745 101.973c-.348 0-.693-.091-1-.268l-10.355-5.979c-.957-.552-1.284-1.775-.732-2.732l4.856-8.412c.663-1.149 1.735-1.972 3.018-2.315 1.281-.344 2.622-.167 3.771.497l5.212 3.009c1.149.664 1.972 1.735 2.315 3.017.344 1.283.167 2.622-.497 3.771l-4.855 8.412c-.266.459-.702.794-1.215.932-.17.045-.345.068-.518.068zm-7.623-8.711 6.891 3.979 3.856-6.68c.175-.303.136-.591.098-.736-.039-.145-.149-.414-.452-.589l-5.212-3.009c-.304-.174-.592-.135-.736-.097s-.413.149-.588.451z" fill="#3762cc"/></g><g><path d="m35.009 70.271c-18.753 0-34.009-15.256-34.009-34.009s15.256-34.01 34.009-34.01 34.009 15.256 34.009 34.009-15.256 34.01-34.009 34.01zm0-64.019c-16.547 0-30.009 13.462-30.009 30.01s13.462 30.009 30.009 30.009 30.009-13.462 30.009-30.009-13.461-30.01-30.009-30.01z" fill="#3762cc"/></g><g><g><path d="m28.647 53.016c-.156 0-.313-.006-.47-.019-1.738-.137-3.325-1.025-4.352-2.438l-8.862-12.196c-.936-1.288-1.314-2.863-1.065-4.435s1.095-2.954 2.383-3.89c1.287-.937 2.863-1.316 4.436-1.065 1.572.249 2.953 1.096 3.889 2.384l4.761 6.551 16.653-16.655c2.324-2.322 6.104-2.323 8.428-.001 2.324 2.324 2.324 6.105.001 8.43l-21.588 21.588c-1.127 1.126-2.623 1.746-4.214 1.746zm-8.867-20.118c-.41 0-.808.128-1.146.375-.425.309-.703.763-.785 1.28s.043 1.034.351 1.458l8.862 12.197c.337.465.859.757 1.431.802.608.046 1.135-.163 1.541-.568l21.586-21.588c.764-.765.764-2.008 0-2.772-.764-.763-2.009-.764-2.773.001l-18.308 18.308c-.414.414-.987.633-1.571.58-.583-.046-1.117-.345-1.461-.818l-6.137-8.445c-.308-.424-.763-.703-1.28-.785-.103-.017-.207-.025-.31-.025z" fill="#3762cc"/></g></g></g></svg>